<svg xmlns="http://www.w3.org/2000/svg" xmlns:xlink="http://www.w3.org/1999/xlink" width="780" zoomAndPan="magnify" viewBox="0 0 585 586.499982" height="782" preserveAspectRatio="xMidYMid meet" version="1.0"><defs><clipPath id="841b198bb0"><path d="M 68.953125 0 L 127.3125 0 L 127.3125 59.515625 L 68.953125 59.515625 Z M 68.953125 0 " clip-rule="nonzero"/></clipPath><clipPath id="a6b0d87117"><path d="M 0.953125 0 L 59.3125 0 L 59.3125 59.515625 L 0.953125 59.515625 Z M 0.953125 0 " clip-rule="nonzero"/></clipPath><clipPath id="033a5297cb"><rect x="0" width="60" y="0" height="60"/></clipPath><clipPath id="2021b51feb"><path d="M 127.3125 59.515625 L 185.671875 59.515625 L 185.671875 119.03125 L 127.3125 119.03125 Z M 127.3125 59.515625 " clip-rule="nonzero"/></clipPath><clipPath id="3e28dd2484"><path d="M 0.3125 0.515625 L 58.671875 0.515625 L 58.671875 60.03125 L 0.3125 60.03125 Z M 0.3125 0.515625 " clip-rule="nonzero"/></clipPath><clipPath id="22ed5806ba"><rect x="0" width="59" y="0" height="61"/></clipPath><clipPath id="0cdad2ea6b"><path d="M 456.792969 0 L 515.152344 0 L 515.152344 59.515625 L 456.792969 59.515625 Z M 456.792969 0 " clip-rule="nonzero"/></clipPath><clipPath id="610b8447e9"><path d="M 0.792969 0 L 59.152344 0 L 59.152344 59.515625 L 0.792969 59.515625 Z M 0.792969 0 " clip-rule="nonzero"/></clipPath><clipPath id="edc9e58d49"><rect x="0" width="60" y="0" height="60"/></clipPath><clipPath id="5d1a410d04"><path d="M 398.433594 59.515625 L 456.792969 59.515625 L 456.792969 119.03125 L 398.433594 119.03125 Z M 398.433594 59.515625 " clip-rule="nonzero"/></clipPath><clipPath id="741360f7ae"><path d="M 0.433594 0.515625 L 58.792969 0.515625 L 58.792969 60.03125 L 0.433594 60.03125 Z M 0.433594 0.515625 " clip-rule="nonzero"/></clipPath><clipPath id="ea21e7c9aa"><rect x="0" width="59" y="0" height="61"/></clipPath><clipPath id="f0bc037691"><path d="M 185.671875 119.03125 L 398.433594 119.03125 L 398.433594 185.21875 L 185.671875 185.21875 Z M 185.671875 119.03125 " clip-rule="nonzero"/></clipPath><clipPath id="1b7c9f5006"><path d="M 0.671875 0.03125 L 213.433594 0.03125 L 213.433594 66.21875 L 0.671875 66.21875 Z M 0.671875 0.03125 " clip-rule="nonzero"/></clipPath><clipPath id="cb07966510"><rect x="0" width="214" y="0" height="67"/></clipPath><clipPath id="03ce6a6f5f"><path d="M 185.671875 183.175781 L 237.492188 183.175781 L 237.492188 237.652344 L 185.671875 237.652344 Z M 185.671875 183.175781 " clip-rule="nonzero"/></clipPath><clipPath id="bae624aeb6"><path d="M 0.671875 0.175781 L 52.492188 0.175781 L 52.492188 54.652344 L 0.671875 54.652344 Z M 0.671875 0.175781 " clip-rule="nonzero"/></clipPath><clipPath id="06b6f09cf4"><rect x="0" width="53" y="0" height="55"/></clipPath><clipPath id="325d4e4a87"><path d="M 348.425781 183.175781 L 398.433594 183.175781 L 398.433594 237.652344 L 348.425781 237.652344 Z M 348.425781 183.175781 " clip-rule="nonzero"/></clipPath><clipPath id="251f00ee43"><path d="M 0.425781 0.175781 L 50.433594 0.175781 L 50.433594 54.652344 L 0.425781 54.652344 Z M 0.425781 0.175781 " clip-rule="nonzero"/></clipPath><clipPath id="1a54986dce"><rect x="0" width="51" y="0" height="55"/></clipPath><clipPath id="cd833c23e7"><path d="M 125.058594 235.609375 L 237.492188 235.609375 L 237.492188 466.820312 L 125.058594 466.820312 Z M 125.058594 235.609375 " clip-rule="nonzero"/></clipPath><clipPath id="20137b4618"><path d="M 0.0585938 0.609375 L 112.492188 0.609375 L 112.492188 231.820312 L 0.0585938 231.820312 Z M 0.0585938 0.609375 " clip-rule="nonzero"/></clipPath><clipPath id="4090a6b4a8"><rect x="0" width="113" y="0" height="232"/></clipPath><clipPath id="a162b25b8b"><path d="M 348.425781 235.609375 L 460.859375 235.609375 L 460.859375 466.820312 L 348.425781 466.820312 Z M 348.425781 235.609375 " clip-rule="nonzero"/></clipPath><clipPath id="eff8e1ac52"><path d="M 0.425781 0.609375 L 112.859375 0.609375 L 112.859375 231.820312 L 0.425781 231.820312 Z M 0.425781 0.609375 " clip-rule="nonzero"/></clipPath><clipPath id="e3d949e94c"><rect x="0" width="113" y="0" height="232"/></clipPath><clipPath id="430c2a3c0b"><path d="M 234.492188 275.566406 L 349.925781 275.566406 L 349.925781 526.347656 L 234.492188 526.347656 Z M 234.492188 275.566406 " clip-rule="nonzero"/></clipPath><clipPath id="4f5dd5bae3"><path d="M 0.492188 0.566406 L 115.925781 0.566406 L 115.925781 251.347656 L 0.492188 251.347656 Z M 0.492188 0.566406 " clip-rule="nonzero"/></clipPath><clipPath id="ec860dd1a4"><rect x="0" width="116" y="0" height="252"/></clipPath><clipPath id="bfc36d38fd"><path d="M 193.105469 465.109375 L 240.066406 465.109375 L 240.066406 526.347656 L 193.105469 526.347656 Z M 193.105469 465.109375 " clip-rule="nonzero"/></clipPath><clipPath id="ddcba30a17"><path d="M 0.105469 0.109375 L 47.066406 0.109375 L 47.066406 61.347656 L 0.105469 61.347656 Z M 0.105469 0.109375 " clip-rule="nonzero"/></clipPath><clipPath id="e4f51d482e"><rect x="0" width="48" y="0" height="62"/></clipPath><clipPath id="596d55ba9c"><path d="M 348.425781 465.109375 L 392.8125 465.109375 L 392.8125 526.347656 L 348.425781 526.347656 Z M 348.425781 465.109375 " clip-rule="nonzero"/></clipPath><clipPath id="eada9e98b7"><path d="M 0.425781 0.109375 L 44.8125 0.109375 L 44.8125 61.347656 L 0.425781 61.347656 Z M 0.425781 0.109375 " clip-rule="nonzero"/></clipPath><clipPath id="f3cacb9268"><rect x="0" width="45" y="0" height="62"/></clipPath><clipPath id="d981d31db0"><path d="M 0.25 290.203125 L 125.8125 290.203125 L 125.8125 349.714844 L 0.25 349.714844 Z M 0.25 290.203125 " clip-rule="nonzero"/></clipPath><clipPath id="ecc85fe8dd"><path d="M 0.25 0.203125 L 125.8125 0.203125 L 125.8125 59.714844 L 0.25 59.714844 Z M 0.25 0.203125 " clip-rule="nonzero"/></clipPath><clipPath id="c336c89601"><rect x="0" width="126" y="0" height="60"/></clipPath><clipPath id="1feba8c194"><path d="M 456.792969 290.203125 L 584.535156 290.203125 L 584.535156 349.714844 L 456.792969 349.714844 Z M 456.792969 290.203125 " clip-rule="nonzero"/></clipPath><clipPath id="3e942d8534"><path d="M 0.792969 0.203125 L 128.535156 0.203125 L 128.535156 59.714844 L 0.792969 59.714844 Z M 0.792969 0.203125 " clip-rule="nonzero"/></clipPath><clipPath id="17e1424d89"><rect x="0" width="129" y="0" height="60"/></clipPath><clipPath id="3ddbe3bc7b"><path d="M 66.699219 466.835938 L 125.058594 466.835938 L 125.058594 526.347656 L 66.699219 526.347656 Z M 66.699219 466.835938 " clip-rule="nonzero"/></clipPath><clipPath id="654c6f529d"><path d="M 0.699219 0.835938 L 59.058594 0.835938 L 59.058594 60.347656 L 0.699219 60.347656 Z M 0.699219 0.835938 " clip-rule="nonzero"/></clipPath><clipPath id="e87ba80ed5"><rect x="0" width="60" y="0" height="61"/></clipPath><clipPath id="b1e93eb913"><path d="M 10.597656 526.347656 L 68.953125 526.347656 L 68.953125 585.863281 L 10.597656 585.863281 Z M 10.597656 526.347656 " clip-rule="nonzero"/></clipPath><clipPath id="57fb4d2c5b"><path d="M 0.597656 0.347656 L 58.953125 0.347656 L 58.953125 59.863281 L 0.597656 59.863281 Z M 0.597656 0.347656 " clip-rule="nonzero"/></clipPath><clipPath id="4dd43f5d45"><rect x="0" width="59" y="0" height="60"/></clipPath><clipPath id="f4c3f6573c"><path d="M 460.859375 465.972656 L 519.21875 465.972656 L 519.21875 525.488281 L 460.859375 525.488281 Z M 460.859375 465.972656 " clip-rule="nonzero"/></clipPath><clipPath id="172e6eafe3"><path d="M 0.859375 0.972656 L 59.21875 0.972656 L 59.21875 60.488281 L 0.859375 60.488281 Z M 0.859375 0.972656 " clip-rule="nonzero"/></clipPath><clipPath id="2e297bd4f7"><rect x="0" width="60" y="0" height="61"/></clipPath><clipPath id="614ba3a747"><path d="M 520.664062 526.347656 L 579.023438 526.347656 L 579.023438 585.863281 L 520.664062 585.863281 Z M 520.664062 526.347656 " clip-rule="nonzero"/></clipPath><clipPath id="5630e7df12"><path d="M 0.664062 0.347656 L 59.023438 0.347656 L 59.023438 59.863281 L 0.664062 59.863281 Z M 0.664062 0.347656 " clip-rule="nonzero"/></clipPath><clipPath id="f3cf6a1f93"><rect x="0" width="60" y="0" height="60"/></clipPath></defs><g clip-path="url(#841b198bb0)"><g transform="matrix(1, 0, 0, 1, 68, 0)"><g clip-path="url(#033a5297cb)"><g clip-path="url(#a6b0d87117)"><path fill="#0d9488" d="M 0.953125 0 L 59.3125 0 L 59.3125 59.5 L 0.953125 59.5 Z M 0.953125 0 " fill-opacity="1" fill-rule="nonzero"/></g></g></g></g><g clip-path="url(#2021b51feb)"><g transform="matrix(1, 0, 0, 1, 127, 59)"><g clip-path="url(#22ed5806ba)"><g clip-path="url(#3e28dd2484)"><path fill="#0d9488" d="M 0.3125 0.515625 L 58.671875 0.515625 L 58.671875 60.011719 L 0.3125 60.011719 Z M 0.3125 0.515625 " fill-opacity="1" fill-rule="nonzero"/></g></g></g></g><g clip-path="url(#0cdad2ea6b)"><g transform="matrix(1, 0, 0, 1, 456, 0)"><g clip-path="url(#edc9e58d49)"><g clip-path="url(#610b8447e9)"><path fill="#0d9488" d="M 0.792969 0 L 59.152344 0 L 59.152344 59.5 L 0.792969 59.5 Z M 0.792969 0 " fill-opacity="1" fill-rule="nonzero"/></g></g></g></g><g clip-path="url(#5d1a410d04)"><g transform="matrix(1, 0, 0, 1, 398, 59)"><g clip-path="url(#ea21e7c9aa)"><g clip-path="url(#741360f7ae)"><path fill="#0d9488" d="M 0.433594 0.515625 L 58.792969 0.515625 L 58.792969 60.011719 L 0.433594 60.011719 Z M 0.433594 0.515625 " fill-opacity="1" fill-rule="nonzero"/></g></g></g></g><g clip-path="url(#f0bc037691)"><g transform="matrix(1, 0, 0, 1, 185, 119)"><g clip-path="url(#cb07966510)"><g clip-path="url(#1b7c9f5006)"><path fill="#0d9488" d="M 0.671875 0.03125 L 213.460938 0.03125 L 213.460938 66.21875 L 0.671875 66.21875 Z M 0.671875 0.03125 " fill-opacity="1" fill-rule="nonzero"/></g></g></g></g><g clip-path="url(#03ce6a6f5f)"><g transform="matrix(1, 0, 0, 1, 185, 183)"><g clip-path="url(#06b6f09cf4)"><g clip-path="url(#bae624aeb6)"><path fill="#0d9488" d="M 0.671875 0.175781 L 52.492188 0.175781 L 52.492188 54.628906 L 0.671875 54.628906 Z M 0.671875 0.175781 " fill-opacity="1" fill-rule="nonzero"/></g></g></g></g><g clip-path="url(#325d4e4a87)"><g transform="matrix(1, 0, 0, 1, 348, 183)"><g clip-path="url(#1a54986dce)"><g clip-path="url(#251f00ee43)"><path fill="#0d9488" d="M 0.425781 0.175781 L 50.433594 0.175781 L 50.433594 54.675781 L 0.425781 54.675781 Z M 0.425781 0.175781 " fill-opacity="1" fill-rule="nonzero"/></g></g></g></g><g clip-path="url(#cd833c23e7)"><g transform="matrix(1, 0, 0, 1, 125, 235)"><g clip-path="url(#4090a6b4a8)"><g clip-path="url(#20137b4618)"><path fill="#0d9488" d="M 0.0585938 0.609375 L 112.492188 0.609375 L 112.492188 231.625 L 0.0585938 231.625 Z M 0.0585938 0.609375 " fill-opacity="1" fill-rule="nonzero"/></g></g></g></g><g clip-path="url(#a162b25b8b)"><g transform="matrix(1, 0, 0, 1, 348, 235)"><g clip-path="url(#e3d949e94c)"><g clip-path="url(#eff8e1ac52)"><path fill="#0d9488" d="M 0.425781 0.609375 L 112.859375 0.609375 L 112.859375 231.625 L 0.425781 231.625 Z M 0.425781 0.609375 " fill-opacity="1" fill-rule="nonzero"/></g></g></g></g><g clip-path="url(#430c2a3c0b)"><g transform="matrix(1, 0, 0, 1, 234, 275)"><g clip-path="url(#ec860dd1a4)"><g clip-path="url(#4f5dd5bae3)"><path fill="#0d9488" d="M 0.492188 0.566406 L 115.925781 0.566406 L 115.925781 251.277344 L 0.492188 251.277344 Z M 0.492188 0.566406 " fill-opacity="1" fill-rule="nonzero"/></g></g></g></g><g clip-path="url(#bfc36d38fd)"><g transform="matrix(1, 0, 0, 1, 193, 465)"><g clip-path="url(#e4f51d482e)"><g clip-path="url(#ddcba30a17)"><path fill="#0d9488" d="M 0.105469 0.109375 L 47.066406 0.109375 L 47.066406 61.378906 L 0.105469 61.378906 Z M 0.105469 0.109375 " fill-opacity="1" fill-rule="nonzero"/></g></g></g></g><g clip-path="url(#596d55ba9c)"><g transform="matrix(1, 0, 0, 1, 348, 465)"><g clip-path="url(#f3cacb9268)"><g clip-path="url(#eada9e98b7)"><path fill="#0d9488" d="M 0.425781 0.109375 L 44.8125 0.109375 L 44.8125 61.316406 L 0.425781 61.316406 Z M 0.425781 0.109375 " fill-opacity="1" fill-rule="nonzero"/></g></g></g></g><g clip-path="url(#d981d31db0)"><g transform="matrix(1, 0, 0, 1, 0.000000000000000028, 290)"><g clip-path="url(#c336c89601)"><g clip-path="url(#ecc85fe8dd)"><path fill="#0d9488" d="M 0.25 0.203125 L 125.789062 0.203125 L 125.789062 59.714844 L 0.25 59.714844 Z M 0.25 0.203125 " fill-opacity="1" fill-rule="nonzero"/></g></g></g></g><g clip-path="url(#1feba8c194)"><g transform="matrix(1, 0, 0, 1, 456, 290)"><g clip-path="url(#17e1424d89)"><g clip-path="url(#3e942d8534)"><path fill="#0d9488" d="M 0.792969 0.203125 L 128.425781 0.203125 L 128.425781 59.714844 L 0.792969 59.714844 Z M 0.792969 0.203125 " fill-opacity="1" fill-rule="nonzero"/></g></g></g></g><g clip-path="url(#3ddbe3bc7b)"><g transform="matrix(1, 0, 0, 1, 66, 466)"><g clip-path="url(#e87ba80ed5)"><g clip-path="url(#654c6f529d)"><path fill="#0d9488" d="M 0.699219 0.835938 L 59.058594 0.835938 L 59.058594 60.332031 L 0.699219 60.332031 Z M 0.699219 0.835938 " fill-opacity="1" fill-rule="nonzero"/></g></g></g></g><g clip-path="url(#b1e93eb913)"><g transform="matrix(1, 0, 0, 1, 10, 526)"><g clip-path="url(#4dd43f5d45)"><g clip-path="url(#57fb4d2c5b)"><path fill="#0d9488" d="M 0.597656 0.347656 L 58.953125 0.347656 L 58.953125 59.847656 L 0.597656 59.847656 Z M 0.597656 0.347656 " fill-opacity="1" fill-rule="nonzero"/></g></g></g></g><g clip-path="url(#f4c3f6573c)"><g transform="matrix(1, 0, 0, 1, 460, 465)"><g clip-path="url(#2e297bd4f7)"><g clip-path="url(#172e6eafe3)"><path fill="#0d9488" d="M 0.859375 0.972656 L 59.21875 0.972656 L 59.21875 60.46875 L 0.859375 60.46875 Z M 0.859375 0.972656 " fill-opacity="1" fill-rule="nonzero"/></g></g></g></g><g clip-path="url(#614ba3a747)"><g transform="matrix(1, 0, 0, 1, 520, 526)"><g clip-path="url(#f3cf6a1f93)"><g clip-path="url(#5630e7df12)"><path fill="#0d9488" d="M 0.664062 0.347656 L 59.023438 0.347656 L 59.023438 59.847656 L 0.664062 59.847656 Z M 0.664062 0.347656 " fill-opacity="1" fill-rule="nonzero"/></g></g></g></g></svg>